<svg xmlns="http://www.w3.org/2000/svg" viewBox="0 0 154 64" fill="#fff">
	<path d="m 11,53 6,-13 19,0 5,13 11,0 L 30,0 22,0 0,53 m 20,-23 6,-16 6,16"/>
	<path d="M 57,53 35,0 44,0 66,53"/>
	<path d="M 71,53 48,0 57,0 80,53"/>
	<path d="m 97,11 c -12,0 -21,10 -21,21 0,11 9,21 21,21 12,0 21,-9 21,-21 0,-12 -9,-21 -21,-21 z m 2,7 1,3 2,1 3,-1 3,3 -1,2 1,3 3,1 0,4 -3,1 -1,3 1,2 -3,3 -2,-1 -3,1 -1,3 -4,0 -1,-3 -3,-1 -2,1 -3,-3 1,-2 -1,-3 -3,-1 0,-4 3,-1 1,-3 -1,-2 3,-3 2,1 3,-1 1,-3 z"/>
	<path d="m 121,64 10,0 23,-53 -10,0 -10,26 -10,-26 -10,0 14,36 -7,17"/>
</svg>
